<svg xmlns="http://www.w3.org/2000/svg" xmlns:xlink="http://www.w3.org/1999/xlink" width="965" zoomAndPan="magnify" viewBox="0 0 723.75 195.000001" height="260" preserveAspectRatio="xMidYMid meet" version="1.0"><defs><g/><clipPath id="edffa734ed"><path d="M 18 9.09375 L 720 9.09375 L 720 169.519531 L 18 169.519531 Z M 18 9.09375 " clip-rule="nonzero"/></clipPath></defs><path fill="#dd0000" d="M 113.171875 24.320312 C 109.007812 24.398438 104.914062 24.5 100.894531 24.625 L 94.933594 24.828125 L 89.050781 25.144531 C 97.121094 24.761719 105.140625 24.601562 113.171875 24.320312 Z M 113.171875 24.320312 " fill-opacity="1" fill-rule="nonzero"/><path fill="#dd0000" d="M 106.660156 25.484375 L 128.917969 25.722656 C 122.101562 25.417969 114.179688 25.28125 106.660156 25.484375 Z M 106.660156 25.484375 " fill-opacity="1" fill-rule="nonzero"/><path fill="#dd0000" d="M 34.71875 71.722656 C 41.664062 73.101562 48.675781 73.859375 55.757812 73.996094 C 62.140625 74.082031 68.476562 74.695312 74.757812 75.832031 C 63.886719 73.496094 61.640625 72.527344 54.796875 71.253906 C 53.082031 70.9375 51.089844 70.605469 48.601562 70.222656 L 39.472656 68.851562 L 26.21875 66.890625 L 17.65625 65.703125 L 7.578125 64.652344 C 2.117188 64.753906 2.765625 65.230469 6.394531 65.898438 C 8.207031 66.230469 10.753906 66.605469 13.667969 67.007812 L 15.902344 67.3125 C 16.292969 67.3125 16.675781 67.429688 17.070312 67.449219 L 18.246094 67.644531 L 23.050781 68.417969 C 35.953125 70.476562 48.21875 72.417969 34.71875 71.722656 Z M 34.71875 71.722656 " fill-opacity="1" fill-rule="nonzero"/><path fill="#dd0000" d="M 74.777344 75.792969 C 78.207031 76.527344 82.394531 77.410156 88.101562 78.457031 C 82.648438 77.253906 78.453125 76.429688 74.777344 75.792969 Z M 74.777344 75.792969 " fill-opacity="1" fill-rule="nonzero"/><path fill="#dd0000" d="M 639.75 22.601562 C 641.757812 23.121094 641.808594 23.75 642.257812 24.367188 C 644.464844 24.222656 644.238281 23.722656 639.75 22.601562 Z M 639.75 22.601562 " fill-opacity="1" fill-rule="nonzero"/><g clip-path="url(#edffa734ed)"><path fill="#dd0000" d="M 637.152344 252.328125 C 640.09375 253.308594 648.445312 254.210938 658.5625 255.042969 C 663.621094 255.464844 669.121094 255.855469 674.613281 256.238281 C 680.101562 256.621094 685.484375 257.140625 690.445312 257.59375 C 700.367188 258.476562 708.425781 259.296875 711.035156 259.75 C 712.328125 259.957031 712.261719 260.171875 710.378906 260.375 C 708.496094 260.582031 704.789062 260.574219 698.820312 260.554688 C 693.605469 259.574219 689.171875 258.308594 682.152344 258.015625 C 681.082031 258.101562 678.632812 258.015625 675.054688 258.015625 C 671.476562 258.015625 666.808594 257.855469 661.398438 257.699219 L 643.296875 257.140625 L 633.21875 256.816406 L 622.726562 256.59375 L 624.289062 256.75 L 634.089844 257.730469 L 643.03125 258.710938 C 648.582031 259.347656 653.171875 259.894531 655.925781 260.296875 C 661.425781 261.09375 659.59375 261.277344 643.375 260.296875 C 648.394531 259.671875 635.640625 257.925781 617.445312 256.375 L 606.757812 256.21875 L 601.804688 256.121094 C 606.648438 257.308594 607.355469 258.308594 615.699219 259.515625 C 619.875 260.121094 625.972656 260.757812 635.425781 261.554688 C 644.875 262.347656 657.574219 263.457031 675.140625 264.691406 C 666.101562 264.367188 664.269531 264.582031 659.269531 264.484375 C 656.777344 264.425781 653.496094 264.296875 648.121094 263.976562 C 642.75 263.652344 635.375 263.074219 624.386719 262.445312 C 632.894531 263.425781 641.289062 264.640625 649.691406 265.738281 C 658.09375 266.835938 666.476562 267.875 674.878906 268.855469 C 666.113281 268.132812 640.90625 266.289062 634.945312 266.835938 C 640.777344 266.386719 623.699219 264.425781 612.1875 262.914062 C 600.679688 261.40625 594.796875 260.316406 623.128906 261.515625 L 601.140625 260.140625 L 591.070312 259.5625 L 581.472656 259.113281 C 571.453125 259.90625 550.5 260.09375 541.039062 260.730469 C 552.078125 261.710938 564.128906 262.875 576.746094 263.855469 L 590.472656 264.367188 L 604.070312 265.003906 L 596.0625 265.375 C 609.277344 266.484375 622.726562 267.496094 635.679688 268.484375 L 672.328125 271.515625 C 659.257812 271.71875 646.273438 272.0625 633.386719 272.554688 L 657.210938 273.613281 L 642.050781 273.160156 L 634.523438 272.945312 L 626.945312 272.808594 L 596.550781 272.296875 C 610.277344 273.0625 622.207031 273.574219 616.472656 273.523438 C 611.03125 273.523438 603.070312 273.199219 594.179688 272.828125 C 597.121094 273.257812 602.402344 273.691406 608.601562 273.976562 C 592.304688 273.652344 574.589844 273.417969 556.792969 272.996094 C 557.453125 273.464844 563.816406 274.132812 582.785156 275.339844 L 598.0625 275.515625 L 598.640625 275.515625 C 607.367188 275.601562 615.984375 275.601562 624.296875 275.445312 L 600.042969 276.425781 C 600.453125 276.683594 600.738281 277.042969 600.894531 277.503906 C 615.367188 278.191406 624.425781 278.542969 631.425781 278.789062 L 600.933594 277.886719 C 600.589844 278.867188 598.0625 279.457031 596.238281 281.082031 C 602.40625 281.738281 612.109375 283.601562 598.628906 283.261719 C 610.394531 283.925781 618.140625 284.671875 623.140625 285.457031 L 590.707031 284.476562 L 558.136719 283.808594 C 547.273438 283.554688 536.273438 283.476562 525.324219 283.339844 C 514.371094 283.199219 503.429688 283.042969 492.371094 283.015625 L 459.292969 282.820312 L 426.054688 282.738281 L 359.289062 282.738281 C 366.277344 284.445312 346.148438 285.464844 330.550781 286.4375 C 314.953125 287.40625 303.882812 288.289062 329.011719 289.917969 C 311.863281 289.398438 294.628906 289.121094 277.871094 289.042969 L 228.636719 288.898438 C 212.773438 288.839844 197.800781 288.652344 183.371094 288.300781 C 176.171875 288.132812 169.007812 287.820312 161.925781 287.4375 C 154.847656 287.054688 147.808594 286.601562 140.769531 286.023438 L 150.964844 287.984375 C 139.660156 287.347656 133.535156 286.710938 129.808594 286.023438 C 127.457031 285.640625 125.203125 284.933594 123.054688 283.90625 C 122.503906 282.613281 121.632812 281.257812 97.21875 279.484375 C 113.503906 278.71875 129.839844 278.054688 145.976562 277.074219 C 141.59375 276.917969 136.679688 276.679688 131.679688 276.417969 L 116.816406 275.484375 C 107.328125 274.886719 99.289062 274.445312 96.289062 274.679688 C 95.796875 274.042969 94.925781 273.445312 91.023438 272.996094 C 89.0625 272.75 86.375 272.582031 82.5625 272.40625 C 78.75 272.230469 73.835938 272.082031 67.511719 271.996094 C 74.964844 271.816406 81.542969 271.632812 87.238281 271.257812 C 92.933594 270.886719 97.816406 270.417969 101.945312 269.90625 C 110.296875 268.925781 115.796875 267.71875 119.257812 266.425781 C 126.171875 263.847656 124.886719 260.828125 121.777344 257.710938 C 115.632812 251.445312 102.257812 244.914062 134.398438 240.796875 C 130.199219 239.886719 113.367188 239.355469 102.25 239.082031 C 125.21875 239.257812 119.199219 238.425781 106.632812 237.355469 C 100.347656 236.828125 92.425781 236.257812 85.667969 235.628906 C 78.914062 235.003906 73.246094 234.335938 71.601562 233.933594 C 77.140625 234.0625 82.71875 234.269531 88.269531 234.328125 C 93.816406 234.386719 99.316406 234.425781 104.835938 234.472656 L 129.691406 234.648438 L 137.9375 234.648438 C 128.132812 233.667969 118.042969 232.933594 108.847656 232.542969 C 99.652344 232.148438 91.199219 231.90625 84.609375 231.433594 C 77.886719 228.023438 90.640625 226.042969 100.296875 223.726562 C 109.953125 221.414062 116.503906 219.226562 96.886719 215.796875 C 108.867188 215.660156 122.316406 216.53125 133.769531 217.101562 C 145.222656 217.667969 154.703125 218.023438 158.839844 217.199219 C 125.71875 217.109375 116.996094 215.238281 111.484375 213.433594 C 108.699219 212.363281 105.847656 211.507812 102.933594 210.863281 C 99.09375 210.089844 93.375 209.523438 83.109375 209.109375 C 91.316406 209.394531 97.660156 209.402344 102.71875 209.34375 C 107.777344 209.285156 111.484375 209.128906 114.414062 208.914062 C 120.296875 208.492188 123.003906 207.84375 126.769531 207.355469 C 132.957031 206.632812 139.167969 206.351562 145.398438 206.511719 C 155.445312 206.511719 170.820312 207.199219 195.527344 208.246094 C 198.585938 207.160156 187.820312 206.285156 175.152344 205.699219 C 162.484375 205.109375 147.867188 204.71875 143.308594 204.816406 C 145.269531 203.511719 146.417969 202.304688 143.082031 200.972656 C 139.75 199.640625 131.957031 198.226562 115.984375 196.199219 C 127.75 196.082031 121.867188 192.660156 122.054688 189.433594 C 122.160156 187.816406 123.816406 186.246094 129.984375 185.160156 C 136.152344 184.070312 146.800781 183.285156 164.957031 183.414062 L 165.007812 183.414062 C 126.621094 183 135.90625 182.433594 127.828125 180.726562 C 123.042969 180.921875 118.023438 181.089844 112.886719 181.707031 C 112.015625 180.726562 112.296875 179.960938 113.394531 179.394531 L 94.894531 179.019531 L 85.640625 178.816406 L 76.375 178.5 L 81.277344 175.175781 C 77.101562 174.195312 78.964844 174.070312 82.90625 174.335938 C 85.082031 173.914062 108.238281 175.882812 119.4375 174.914062 C 120.847656 173.746094 115.515625 172.804688 107.003906 171.84375 C 98.492188 170.882812 86.789062 169.953125 75.425781 168.433594 L 68.90625 168.375 L 64.777344 166.414062 C 65.472656 165.8125 76.367188 167.714844 89.933594 169.265625 C 103.503906 170.816406 119.738281 172.019531 131.113281 170.578125 C 127.367188 170.382812 119.25 169.6875 110.75 168.882812 L 108.101562 169.128906 L 110.0625 168.824219 C 100.652344 167.921875 90.90625 166.863281 86.210938 166.070312 C 81.511719 165.273438 81.875 164.804688 92.652344 165 C 91.101562 166.285156 103.796875 167.304688 116.386719 167.84375 C 125.210938 166.53125 131.417969 165.8125 135.761719 165.421875 C 126.710938 165.195312 117.652344 164.792969 108.601562 164.441406 C 99.550781 164.089844 90.503906 163.84375 81.445312 163.394531 C 84.699219 155.371094 124.652344 148.765625 121.386719 139.734375 C 133.613281 140.449219 139.917969 140.246094 143.582031 139.863281 C 145.859375 139.640625 148.027344 139.039062 150.09375 138.058594 C 151.867188 137.390625 154.359375 136.773438 160.878906 136.578125 C 164.152344 136.46875 168.4375 136.46875 174.164062 136.578125 C 179.890625 136.6875 187.035156 136.929688 196.035156 137.351562 L 189.113281 137.449219 C 192.496094 138.628906 205.832031 138.988281 217.832031 138.824219 C 229.832031 138.65625 240.5 137.84375 238.519531 136.863281 L 233.363281 136.785156 C 230.566406 136.785156 227.480469 136.785156 224.28125 136.65625 L 212.015625 136.402344 L 165.339844 135.421875 C 150.496094 135.097656 137.042969 135.019531 127.101562 135.246094 C 125.964844 133.519531 130.730469 132.675781 135.28125 131.910156 C 130.554688 131.246094 125.839844 130.480469 121.121094 129.753906 L 115.515625 129.371094 C 111.738281 129.519531 111.386719 129.371094 111.925781 129.117188 C 102.484375 128.449219 94.632812 127.832031 88.148438 127.285156 C 81.667969 126.734375 76.589844 126.085938 72.660156 125.578125 C 64.816406 124.539062 61.589844 123.695312 61.375 122.980469 C 60.925781 121.539062 72.394531 120.566406 82.464844 119.449219 C 76.035156 119.273438 69.617188 119.445312 63.207031 119.960938 C 65.914062 118.683594 73.816406 118.722656 83.375 119.34375 C 95.289062 117.921875 104.613281 116.15625 88.640625 113.460938 C 93.972656 114.085938 101.328125 114.585938 105.613281 114.863281 C 101.851562 114.359375 98.15625 113.5625 94.523438 112.46875 C 87.660156 112.085938 81.042969 111.597656 74.738281 111.15625 L 56.738281 110.164062 L 27.726562 108.363281 C 10.011719 106.460938 19.558594 106.527344 34.03125 106.960938 C 37.660156 107.046875 41.570312 107.222656 45.472656 107.292969 L 56.707031 107.480469 C 63.648438 107.578125 69.03125 107.585938 70.050781 107.363281 C 84.523438 107.65625 89.011719 107.15625 87.964844 106.203125 C 86.914062 105.253906 80.335938 103.859375 72.71875 102.28125 C 57.453125 99.007812 37.992188 95.761719 49.480469 95.539062 L 80.925781 101.195312 C 95.574219 102.332031 77.640625 96.292969 57.394531 93.175781 C 62.0625 93.714844 70.140625 94.753906 80.167969 96.066406 C 85.171875 96.753906 90.660156 97.390625 96.425781 98.078125 L 114.347656 100.273438 C 97.679688 97.734375 100.621094 96.605469 116.496094 94.292969 L 126.398438 95.019531 L 108.101562 92.078125 C 102.699219 91.410156 90.589844 83.917969 101.875 85.820312 L 97.953125 82.597656 L 103.160156 82.871094 L 85.160156 80.273438 C 89.726562 80.304688 94.277344 80.574219 98.816406 81.085938 C 105.445312 81.714844 113.867188 82.636719 123.21875 83.734375 C 127.851562 83.96875 132.480469 83.96875 137.113281 83.734375 C 139.503906 83.554688 139.859375 83.222656 138.878906 82.753906 C 136.917969 81.898438 129.613281 80.65625 122.535156 79.273438 C 117.457031 78.292969 112.484375 77.3125 109.671875 76.476562 C 95.433594 73.996094 87.128906 72.035156 91.472656 71.398438 C 83.75 71.027344 76.101562 70.417969 68.414062 69.988281 C 63.699219 68.832031 66.785156 68.027344 68.648438 67.253906 C 70.511719 66.476562 71.070312 66.054688 61.492188 64.910156 L 100.789062 69.390625 L 146.023438 74.761719 L 149.878906 74.859375 L 146.203125 74.3125 C 140.503906 73.8125 135.496094 73.253906 131.023438 72.683594 C 126.554688 72.113281 122.640625 71.429688 119.0625 70.792969 C 111.90625 69.515625 106.152344 68.234375 100.433594 67.105469 C 96.851562 66.523438 93.277344 65.960938 89.710938 65.417969 C 82.628906 65.066406 76.109375 64.4375 70.285156 63.566406 C 76.375 63.820312 81.484375 64.273438 86.089844 64.851562 L 75.0625 63.015625 C 76.316406 63.230469 78.679688 63.585938 81.867188 64.046875 C 85.050781 64.507812 89.101562 65.027344 93.75 65.59375 C 98.152344 65.773438 102.710938 65.929688 107.476562 65.9375 C 98.652344 65.203125 92.570312 64.59375 88.652344 64.113281 C 84.730469 63.632812 82.972656 63.132812 82.769531 62.773438 C 80.023438 62.457031 77.777344 62.210938 76.050781 62.046875 L 82.738281 62.625 C 82.914062 62.25 84.699219 61.96875 87.355469 61.710938 C 90.011719 61.457031 93.660156 61.152344 97.523438 60.96875 C 86.375 59.890625 77.828125 58.949219 75.21875 58.769531 C 53.335938 54.398438 64.070312 54.851562 73.257812 55.132812 L 73.90625 55.25 L 74.582031 55.183594 L 73.257812 55.132812 L 71.464844 54.828125 L 74.582031 55.183594 C 76.972656 54.9375 77.523438 54.566406 76.757812 54.105469 C 71.53125 53.222656 61.472656 51.769531 44.140625 49.390625 L 74.53125 53.308594 C 71.472656 52.515625 66.003906 51.566406 59.757812 50.59375 L 50.03125 49.144531 L 45.128906 48.4375 L 40.421875 47.683594 C 28.246094 45.722656 19.5 44.261719 27.128906 44.4375 C 28.34375 44.015625 31.835938 43.957031 36.804688 44.132812 C 39.296875 44.222656 42.160156 44.367188 45.285156 44.554688 L 55.472656 45.074219 C 69.894531 45.859375 87.011719 47.035156 100.640625 47.367188 C 97.984375 46.714844 95.292969 46.292969 92.5625 46.105469 C 88.808594 45.761719 84.179688 45.386719 79.128906 45.015625 C 69.003906 44.289062 57.109375 43.664062 47.101562 43.105469 C 27.207031 41.742188 14.8125 40.703125 38.699219 40.359375 C 41.316406 40.769531 43.71875 41.339844 46.382812 41.703125 C 49.402344 42.148438 52.441406 42.382812 55.492188 42.398438 C 57.628906 42.191406 65.484375 42.242188 76.296875 42.398438 C 81.710938 42.488281 87.835938 42.644531 94.453125 42.671875 L 115.042969 43.066406 L 113.484375 42.917969 L 94.699219 41.046875 L 87.140625 40.347656 C 84.953125 40.105469 83.121094 39.886719 81.738281 39.703125 C 78.984375 39.339844 78.070312 39.105469 79.867188 39.066406 C 81.660156 39.027344 86.148438 39.210938 94.335938 39.457031 C 89.277344 40.191406 102.179688 41.613281 120.347656 43.171875 L 131.003906 43.378906 L 135.984375 43.425781 C 131.082031 42.300781 130.398438 41.320312 122.042969 40.113281 C 117.867188 39.515625 111.777344 38.867188 102.308594 38.152344 L 94.542969 37.585938 L 85.394531 37.035156 L 62.464844 35.605469 C 71.503906 35.820312 73.335938 35.605469 78.335938 35.605469 C 80.835938 35.605469 84.101562 35.75 89.503906 35.957031 C 94.90625 36.164062 102.425781 36.566406 113.347656 37.210938 C 104.855469 36.171875 96.386719 35.085938 87.914062 34.269531 C 79.445312 33.457031 71.109375 32.308594 62.707031 31.464844 C 67.089844 31.78125 75.589844 32.320312 83.738281 32.703125 C 87.796875 32.917969 91.835938 32.984375 95.191406 33.015625 C 97.71875 33.105469 100.246094 33.058594 102.769531 32.878906 C 96.886719 33.367188 114.035156 35.25 125.542969 36.742188 C 131.289062 37.496094 135.691406 38.066406 135.054688 38.386719 C 134.730469 38.546875 133.160156 38.644531 129.898438 38.625 C 126.632812 38.605469 121.691406 38.4375 114.613281 38.144531 C 130.21875 39.203125 143.839844 39.769531 156.347656 40.339844 C 161.359375 39.945312 169.09375 39.691406 176.789062 39.417969 C 184.488281 39.144531 192.144531 38.839844 196.859375 38.535156 C 185.832031 37.554688 173.644531 36.625 161.066406 35.59375 L 133.699219 34.613281 L 141.769531 34.144531 L 131.75 33.445312 L 121.777344 32.691406 L 102.042969 31.230469 L 65.265625 28.769531 C 71.804688 28.59375 78.316406 28.382812 84.808594 28.132812 C 88.03125 28.023438 91.328125 27.808594 94.613281 27.632812 L 104.414062 27.152344 C 96.414062 26.859375 88.367188 26.808594 80.445312 26.503906 L 87.984375 26.625 L 95.570312 26.625 L 110.660156 26.9375 C 120.789062 27.082031 130.878906 27.289062 141.054688 27.300781 L 131.25 26.886719 L 123.699219 26.515625 C 119.71875 26.300781 118.171875 26.191406 121.035156 26.210938 C 123.898438 26.230469 127.101562 26.308594 130.839844 26.417969 L 143.367188 26.730469 C 140.425781 26.339844 135.074219 25.984375 128.859375 25.75 L 154.300781 26.015625 L 180.769531 26.476562 C 180.4375 26.25 178.671875 25.976562 174.605469 25.644531 C 170.535156 25.308594 164.222656 24.808594 154.742188 24.230469 C 149.597656 24.171875 144.488281 24.144531 139.417969 24.152344 L 138.828125 24.152344 C 130.003906 24.210938 121.4375 24.152344 113.113281 24.347656 C 121.210938 23.996094 129.25 23.730469 137.417969 23.269531 C 137 23.019531 136.710938 22.664062 136.554688 22.203125 L 106.035156 21.054688 L 121.277344 21.476562 C 126.359375 21.613281 131.4375 21.769531 136.5625 21.839844 C 136.917969 20.859375 139.503906 20.242188 141.289062 18.59375 C 135.082031 18.003906 125.289062 16.269531 138.867188 16.445312 L 130.738281 16.035156 C 128.28125 15.867188 126.054688 15.691406 124.023438 15.515625 C 119.984375 15.152344 116.789062 14.769531 114.289062 14.386719 L 130.503906 14.828125 L 146.839844 15.113281 C 157.742188 15.289062 168.59375 15.535156 179.546875 15.640625 L 212.4375 15.957031 C 223.378906 16.082031 234.46875 16.0625 245.480469 16.132812 L 378.816406 16.25 C 371.835938 14.535156 391.945312 13.535156 407.5625 12.582031 C 423.183594 11.632812 434.359375 10.742188 409.113281 9.113281 C 426.40625 9.660156 443.488281 9.828125 460.359375 9.9375 L 509.695312 10.09375 L 532.902344 10.269531 C 540.421875 10.347656 547.765625 10.464844 555.039062 10.710938 C 569.589844 11.191406 583.570312 11.789062 597.71875 13.023438 C 594.296875 12.320312 590.855469 11.621094 587.492188 10.976562 C 610.1875 12.339844 612.160156 13.722656 615.511719 15.140625 C 616.0625 16.464844 616.886719 17.761719 641.355469 19.582031 C 625.003906 20.269531 608.757812 21.113281 592.460938 21.878906 C 610.109375 22.671875 636.199219 24.769531 642.277344 24.417969 C 643.257812 25.691406 645.808594 26.90625 671.132812 26.964844 C 656.199219 27.464844 644.914062 28.191406 636.511719 29.144531 C 628.109375 30.09375 622.648438 31.367188 619.1875 32.664062 C 612.265625 35.261719 613.53125 38.289062 616.628906 41.40625 C 622.75 47.652344 636.121094 54.261719 603.882812 58.332031 C 608.128906 59.3125 624.925781 59.769531 636.0625 60.066406 C 613.089844 59.910156 619.101562 60.730469 631.671875 61.792969 C 644.238281 62.851562 663.484375 64.476562 666.769531 65.242188 C 655.679688 65.066406 644.5625 64.800781 633.492188 64.683594 L 600.355469 64.488281 C 610.246094 65.632812 620.269531 66.230469 629.472656 66.644531 C 638.679688 67.054688 647.121094 67.429688 653.789062 67.878906 C 660.503906 71.273438 647.710938 73.339844 638.03125 75.476562 C 633.132812 76.574219 629.109375 77.734375 628.71875 79.007812 C 628.328125 80.28125 631.589844 81.65625 641.464844 83.476562 C 629.433594 83.476562 616.03125 82.773438 604.550781 82.105469 C 593.070312 81.4375 583.570312 81.074219 579.433594 81.898438 C 583.578125 81.898438 587.335938 81.957031 590.757812 82.015625 C 594.179688 82.074219 597.277344 82.214844 600.0625 82.339844 C 605.628906 82.597656 610.011719 82.917969 613.511719 83.320312 C 618.039062 83.632812 622.472656 84.445312 626.816406 85.761719 C 629.601562 86.835938 632.449219 87.691406 635.367188 88.332031 C 639.210938 89.117188 644.945312 89.8125 655.238281 90.234375 C 647.023438 89.957031 640.640625 89.832031 635.632812 89.851562 C 630.621094 89.871094 626.867188 90.078125 623.933594 90.292969 C 618.050781 90.722656 615.347656 91.371094 611.570312 91.871094 C 607.796875 92.371094 602.964844 92.722656 592.875 92.566406 C 582.785156 92.410156 567.472656 91.96875 542.695312 90.734375 C 541.167969 91.28125 543.097656 91.761719 546.992188 92.203125 C 550.882812 92.644531 556.792969 93.066406 563.109375 93.398438 C 575.804688 94.066406 590.382812 94.378906 594.960938 94.292969 C 591.042969 96.871094 590.375 99.078125 622.289062 103.046875 C 610.523438 103.175781 616.40625 106.597656 616.199219 109.832031 C 616.082031 111.460938 614.425781 113.027344 608.246094 114.125 C 602.070312 115.222656 591.382812 115.785156 573.246094 115.714844 L 573.1875 115.714844 C 592.375 115.871094 599.660156 116.242188 603.160156 116.695312 C 606.660156 117.144531 606.34375 117.675781 610.386719 118.566406 C 615.167969 118.363281 620.1875 118.195312 625.335938 117.585938 C 626.199219 118.566406 625.914062 119.332031 624.816406 119.910156 C 637.140625 120.085938 649.503906 120.585938 661.855469 120.960938 L 656.957031 124.3125 C 661.132812 125.292969 659.269531 125.421875 655.328125 125.15625 C 654.238281 125.390625 647.894531 124.941406 640.433594 124.539062 C 633.21875 124.054688 626 124.007812 618.777344 124.402344 C 617.355469 125.578125 622.699219 126.519531 631.199219 127.480469 C 639.699219 128.441406 651.425781 129.667969 662.777344 131.066406 L 669.308594 131.117188 L 673.417969 133.078125 C 672.71875 133.65625 661.835938 131.84375 648.269531 130.195312 C 634.699219 128.546875 618.472656 127.351562 607.089844 128.746094 C 610.835938 128.960938 618.953125 129.636719 627.445312 130.441406 L 630.089844 130.207031 L 628.128906 130.507812 C 637.53125 131.351562 647.289062 132.636719 651.984375 133.449219 C 656.679688 134.265625 656.316406 134.785156 645.523438 134.429688 C 647.082031 133.167969 634.386719 131.941406 621.808594 131.488281 C 612.984375 132.8125 606.757812 133.539062 602.402344 133.871094 L 629.570312 134.851562 C 634.101562 134.988281 638.621094 135.195312 643.152344 135.429688 L 656.738281 136.085938 C 655.101562 140.15625 644.257812 143.675781 634.257812 147.382812 C 624.257812 151.089844 615.089844 155.089844 616.6875 159.628906 C 592.238281 158.253906 591.550781 159.785156 587.992188 161.128906 C 584.433594 162.472656 578.019531 163.558594 542.03125 161.65625 L 548.953125 161.589844 C 545.578125 160.371094 532.234375 160.03125 520.234375 160.1875 C 508.234375 160.34375 497.585938 161.058594 499.558594 162.03125 L 504.714844 162.128906 C 507.5 162.128906 510.597656 162.195312 513.785156 162.3125 L 526.046875 162.578125 L 572.707031 163.667969 C 580.128906 163.832031 587.207031 163.902344 593.667969 163.992188 C 600.128906 164.078125 605.972656 164.109375 610.945312 163.992188 C 612.070312 165.714844 607.296875 166.578125 602.757812 167.285156 L 616.90625 169.5 L 622.511719 169.882812 C 626.289062 169.734375 626.628906 169.882812 626.089844 170.136719 C 635.53125 170.765625 643.367188 171.53125 649.835938 172.175781 C 656.308594 172.824219 661.394531 173.414062 665.316406 173.941406 C 673.160156 175.011719 676.378906 175.902344 676.59375 176.589844 C 677.035156 178.039062 665.5625 178.980469 655.496094 180.078125 C 661.921875 180.273438 668.339844 180.121094 674.75 179.617188 C 672.023438 180.894531 664.132812 180.824219 654.574219 180.175781 C 642.660156 181.5 633.367188 183.117188 649.289062 186.058594 C 643.972656 185.34375 636.648438 184.707031 632.355469 184.453125 C 636.117188 184.964844 639.800781 185.800781 643.414062 186.960938 L 681.113281 189.757812 C 692.359375 190.738281 702.164062 191.472656 710.066406 191.960938 C 718.890625 192.941406 720.949219 193.335938 718.96875 193.519531 C 717.988281 193.628906 716.027344 193.648438 713.320312 193.628906 C 710.613281 193.609375 707.359375 193.472656 703.742188 193.34375 L 681.121094 192.453125 C 676.679688 192.210938 672.234375 192.210938 667.789062 192.453125 C 638.847656 191.765625 649.875 194.285156 665.101562 197.550781 L 676.78125 200.023438 C 680.554688 200.84375 684.035156 201.660156 686.691406 202.34375 C 691.996094 203.738281 693.964844 204.660156 688.25 204.628906 C 677.867188 202.414062 667.367188 200.582031 656.875 198.601562 C 642.21875 197.402344 660.140625 203.503906 680.40625 206.835938 L 657.738281 203.777344 C 647.75 202.433594 635.894531 200.6875 623.640625 199.257812 C 640.308594 201.816406 637.367188 202.941406 621.472656 205.257812 L 611.570312 204.523438 L 629.855469 207.464844 C 634.164062 207.933594 638.429688 208.636719 642.660156 209.570312 C 654.277344 211.53125 666.015625 213.425781 677.238281 215.148438 C 688.40625 217.03125 699.042969 218.867188 708.515625 220.304688 C 707.644531 221.21875 704.085938 221.472656 697.378906 220.707031 C 698.359375 222.464844 696.113281 222.484375 690.789062 221.816406 C 688.125 221.492188 684.683594 220.972656 680.464844 220.464844 C 676.25 219.953125 671.210938 219.484375 665.417969 219.128906 L 636.050781 213.746094 L 639.925781 217.03125 L 634.730469 216.6875 L 652.660156 219.570312 C 648.105469 219.460938 643.570312 219.117188 639.050781 218.53125 C 632.464844 217.796875 624.023438 216.933594 614.679688 215.804688 C 586.246094 214.824219 601.1875 217.503906 615.355469 220.226562 C 620.425781 221.207031 625.386719 222.1875 628.210938 223.042969 C 635.296875 224.296875 640.867188 225.542969 644.152344 226.464844 C 647.433594 227.386719 648.414062 228.0625 646.269531 228.355469 L 669.289062 230.011719 C 673.996094 231.230469 670.90625 231.972656 669.042969 232.769531 C 667.179688 233.5625 666.613281 233.953125 676.179688 235.1875 L 591.863281 224.609375 L 588.011719 224.503906 L 591.679688 225.0625 C 614.386719 227.347656 625.914062 230.179688 637.355469 232.523438 L 647.933594 234.445312 C 654.976562 234.925781 661.515625 235.582031 667.328125 236.503906 C 661.238281 236.191406 656.132812 235.691406 651.523438 235.070312 L 662.542969 237.03125 C 660.042969 236.570312 653.132812 235.53125 643.914062 234.199219 C 639.53125 233.953125 635.023438 233.699219 630.25 233.710938 C 647.894531 235.296875 654.394531 236.472656 654.886719 237.210938 C 657.632812 237.550781 659.875 237.816406 661.601562 237.992188 L 654.925781 237.355469 C 654.554688 238.089844 647.867188 238.472656 640.21875 238.777344 C 651.277344 240.109375 659.828125 241.089844 662.457031 241.296875 C 684.300781 245.90625 673.574219 245.386719 664.417969 244.972656 L 663.769531 244.847656 L 663.09375 244.90625 L 664.417969 244.972656 L 666.199219 245.296875 L 663.09375 244.914062 C 660.699219 245.132812 660.152344 245.503906 660.90625 245.964844 C 666.132812 246.945312 676.21875 248.308594 693.367188 251.367188 C 688.347656 250.550781 683.339844 249.691406 678.308594 248.925781 C 673.28125 248.160156 668.191406 247.492188 663.132812 246.769531 C 666.179688 247.613281 671.660156 248.59375 677.839844 249.710938 L 697.042969 253.179688 C 703.125 254.257812 708.339844 255.269531 711.09375 255.847656 C 713.847656 256.425781 714.125 256.710938 710.308594 256.691406 C 707.878906 257.523438 696.347656 256.691406 682.074219 255.375 L 676.601562 254.914062 L 670.90625 254.523438 L 659.25 253.710938 C 651.523438 253.132812 643.855469 252.640625 637.152344 252.328125 Z M 632.191406 123.890625 C 635.394531 123.890625 638.613281 123.890625 641.828125 123.890625 C 631.171875 122.871094 621.640625 122.097656 632.148438 123.921875 Z M 603.601562 131.667969 C 607.523438 131.667969 611.765625 131.5 616.347656 131.246094 C 611.765625 131.097656 607.523438 131.027344 604.296875 131.046875 Z M 117.308594 59.769531 L 82.816406 56.085938 L 77.445312 55.898438 C 84.777344 57.269531 95.386719 58.664062 108.160156 60.398438 C 111.730469 60.269531 114.964844 60.035156 117.269531 59.800781 Z M 120.730469 59.085938 C 120.796875 58.96875 120.730469 58.851562 120.347656 58.722656 C 115.808594 58.066406 110.808594 57.585938 105.535156 57.183594 Z M 106.023438 175.394531 L 96.394531 175.453125 C 106.964844 176.402344 116.542969 177.277344 105.984375 175.421875 Z M 134.582031 167.550781 C 130.660156 167.636719 126.417969 167.753906 121.789062 168.011719 C 126.367188 168.15625 130.613281 168.246094 133.828125 168.175781 Z M 373.582031 163.214844 C 373.582031 163.273438 373.582031 163.332031 373.632812 163.394531 L 374.152344 163.324219 L 373.652344 163.1875 Z M 380.25 162.304688 L 380.015625 162.363281 Z M 364.453125 135.675781 C 364.453125 135.617188 364.453125 135.558594 364.40625 135.5 L 363.894531 135.566406 L 364.394531 135.707031 Z M 357.796875 136.578125 L 358.023438 136.519531 Z M 398.074219 18.339844 C 398.238281 18.492188 398.355469 18.679688 398.417969 18.898438 C 400.484375 18.898438 402.621094 18.898438 404.964844 18.839844 Z M 340.011719 280.601562 C 339.847656 280.449219 339.730469 280.261719 339.667969 280.042969 C 337.601562 280.042969 335.464844 280.042969 333.121094 280.113281 Z M 632.179688 242.445312 L 616.992188 240.484375 C 616.914062 240.601562 616.992188 240.71875 617.367188 240.855469 C 621.925781 241.542969 626.925781 242.042969 632.25 242.445312 Z M 660.160156 244.113281 C 652.796875 242.75 642.308594 240.964844 629.5625 239.210938 C 625.953125 239.394531 622.699219 239.589844 620.414062 239.816406 C 626.160156 240.472656 631.933594 241.042969 637.652344 241.777344 L 654.796875 243.867188 Z M 660.160156 244.113281 " fill-opacity="1" fill-rule="nonzero"/></g><path fill="#dd0000" d="M 676.160156 18.347656 L 677.5625 18.515625 L 679.320312 18.640625 L 679.613281 18.640625 L 680.210938 18.722656 L 680.847656 18.722656 L 679.417969 18.632812 L 679.652344 18.632812 L 680.328125 18.574219 L 681.691406 18.4375 L 684.378906 18.203125 L 689.613281 17.722656 C 682.289062 17.484375 675.082031 17.457031 667.835938 17.359375 L 673.378906 18.023438 Z M 676.160156 18.347656 " fill-opacity="1" fill-rule="nonzero"/><path fill="#dd0000" d="M 661.554688 13.75 L 640.09375 11.839844 L 618.796875 10.160156 C 621.472656 10.699219 626.894531 11.761719 617.265625 11.554688 L 639.316406 12.535156 Z M 661.554688 13.75 " fill-opacity="1" fill-rule="nonzero"/><g fill="#ffffff" fill-opacity="1"><g transform="translate(173.465994, 126.742184)"><g><path d="M 5.6875 -16.59375 C 5.851562 -16.914062 6.21875 -17.703125 6.78125 -18.953125 C 7.34375 -20.203125 8.148438 -21.53125 9.203125 -22.9375 C 10.253906 -24.351562 11.503906 -25.445312 12.953125 -26.21875 C 14.410156 -26.988281 16.066406 -27.007812 17.921875 -26.28125 C 19.296875 -22.488281 21.738281 -19.5 25.25 -17.3125 C 28.757812 -15.132812 32.375 -14.046875 36.09375 -14.046875 C 39.476562 -14.046875 42.039062 -14.910156 43.78125 -16.640625 C 45.519531 -18.378906 46.390625 -20.503906 46.390625 -23.015625 C 46.390625 -25.671875 45.457031 -27.890625 43.59375 -29.671875 C 41.738281 -31.453125 39.378906 -33.003906 36.515625 -34.328125 C 33.648438 -35.660156 30.582031 -37.035156 27.3125 -38.453125 C 24.039062 -39.867188 20.953125 -41.503906 18.046875 -43.359375 C 15.140625 -45.210938 12.773438 -47.570312 10.953125 -50.4375 C 9.140625 -53.300781 8.234375 -56.875 8.234375 -61.15625 C 8.234375 -65.113281 9.019531 -68.503906 10.59375 -71.328125 C 12.164062 -74.160156 14.242188 -76.484375 16.828125 -78.296875 C 19.410156 -80.109375 22.273438 -81.457031 25.421875 -82.34375 C 28.578125 -83.238281 31.726562 -83.6875 34.875 -83.6875 C 37.78125 -83.6875 40.75 -83.300781 43.78125 -82.53125 C 46.8125 -81.769531 49.617188 -80.617188 52.203125 -79.078125 C 54.785156 -77.546875 56.863281 -75.566406 58.4375 -73.140625 C 60.007812 -70.722656 60.796875 -67.820312 60.796875 -64.4375 C 60.472656 -64.269531 59.765625 -63.921875 58.671875 -63.390625 C 57.585938 -62.867188 56.335938 -62.304688 54.921875 -61.703125 C 53.503906 -61.097656 52.210938 -60.570312 51.046875 -60.125 C 49.878906 -59.6875 49.09375 -59.503906 48.6875 -59.578125 C 46.90625 -62.492188 44.800781 -64.796875 42.375 -66.484375 C 39.957031 -68.179688 37.21875 -69.03125 34.15625 -69.03125 C 31.164062 -69.03125 29.003906 -68.28125 27.671875 -66.78125 C 26.335938 -65.289062 25.671875 -63.617188 25.671875 -61.765625 C 25.671875 -59.421875 26.578125 -57.441406 28.390625 -55.828125 C 30.210938 -54.210938 32.578125 -52.71875 35.484375 -51.34375 C 38.390625 -49.976562 41.4375 -48.566406 44.625 -47.109375 C 47.8125 -45.660156 50.859375 -43.882812 53.765625 -41.78125 C 56.671875 -39.6875 59.03125 -37.101562 60.84375 -34.03125 C 62.664062 -30.957031 63.578125 -27.160156 63.578125 -22.640625 C 63.578125 -17.796875 62.445312 -13.535156 60.1875 -9.859375 C 57.925781 -6.191406 54.738281 -3.328125 50.625 -1.265625 C 46.507812 0.785156 41.664062 1.8125 36.09375 1.8125 C 31.644531 1.8125 27.742188 1.207031 24.390625 0 C 21.046875 -1.207031 18.222656 -2.695312 15.921875 -4.46875 C 13.617188 -6.25 11.738281 -8.046875 10.28125 -9.859375 C 8.832031 -11.679688 7.742188 -13.238281 7.015625 -14.53125 C 6.296875 -15.820312 5.851562 -16.507812 5.6875 -16.59375 Z M 40.9375 6.65625 C 37.382812 6.65625 34.210938 6.25 31.421875 5.4375 C 28.640625 4.632812 26.160156 3.628906 23.984375 2.421875 C 25.753906 2.984375 27.648438 3.425781 29.671875 3.75 C 31.691406 4.070312 33.832031 4.234375 36.09375 4.234375 C 42.144531 4.234375 47.410156 3.101562 51.890625 0.84375 C 56.367188 -1.414062 59.835938 -4.5625 62.296875 -8.59375 C 64.765625 -12.632812 66 -17.316406 66 -22.640625 C 66 -25.222656 65.675781 -27.6875 65.03125 -30.03125 C 66.082031 -28.414062 66.910156 -26.597656 67.515625 -24.578125 C 68.117188 -22.566406 68.421875 -20.304688 68.421875 -17.796875 C 68.421875 -12.953125 67.289062 -8.691406 65.03125 -5.015625 C 62.769531 -1.347656 59.582031 1.507812 55.46875 3.5625 C 51.351562 5.625 46.507812 6.65625 40.9375 6.65625 Z M 53.53125 -54.734375 L 51.234375 -57.890625 C 52.765625 -58.367188 54.394531 -58.953125 56.125 -59.640625 C 57.863281 -60.328125 59.398438 -60.992188 60.734375 -61.640625 C 62.066406 -62.285156 62.894531 -62.691406 63.21875 -62.859375 C 63.21875 -65.441406 62.851562 -67.742188 62.125 -69.765625 C 63.257812 -68.472656 64.128906 -66.976562 64.734375 -65.28125 C 65.335938 -63.582031 65.640625 -61.679688 65.640625 -59.578125 C 65.316406 -59.421875 64.609375 -59.078125 63.515625 -58.546875 C 62.429688 -58.023438 61.179688 -57.460938 59.765625 -56.859375 C 58.347656 -56.253906 57.054688 -55.726562 55.890625 -55.28125 C 54.722656 -54.84375 53.9375 -54.660156 53.53125 -54.734375 Z M 39 -64.1875 C 36.007812 -64.1875 33.867188 -63.457031 32.578125 -62 C 31.285156 -60.550781 30.597656 -58.9375 30.515625 -57.15625 C 28.898438 -58.53125 28.09375 -60.066406 28.09375 -61.765625 C 28.09375 -62.972656 28.554688 -64.082031 29.484375 -65.09375 C 30.421875 -66.101562 31.976562 -66.609375 34.15625 -66.609375 C 36.570312 -66.609375 38.992188 -65.722656 41.421875 -63.953125 C 41.015625 -64.023438 40.609375 -64.082031 40.203125 -64.125 C 39.804688 -64.164062 39.40625 -64.1875 39 -64.1875 Z M 36.328125 -31.734375 L 29.796875 -34.640625 C 30.921875 -34.148438 32.046875 -33.660156 33.171875 -33.171875 C 34.304688 -32.691406 35.359375 -32.210938 36.328125 -31.734375 Z M 36.328125 -31.734375 "/></g></g></g><g fill="#ffffff" fill-opacity="1"><g transform="translate(238.499523, 126.742184)"><g><path d="M 63.46875 0.125 L 44.8125 0.125 C 39.5625 0.125 33.988281 0.265625 28.09375 0.546875 C 22.195312 0.828125 16.75 0.484375 11.75 -0.484375 C 11.1875 -5.648438 10.820312 -11.238281 10.65625 -17.25 C 10.5 -23.269531 10.5 -29.40625 10.65625 -35.65625 C 10.820312 -41.914062 10.984375 -48.113281 11.140625 -54.25 C 11.304688 -60.394531 11.390625 -66.171875 11.390625 -71.578125 L 11.625 -81.390625 C 13.238281 -81.546875 14.851562 -81.644531 16.46875 -81.6875 C 18.082031 -81.726562 19.695312 -81.75 21.3125 -81.75 L 58.125 -81.75 L 63.953125 -81.5 C 64.191406 -79.082031 64.3125 -76.625 64.3125 -74.125 C 64.3125 -72.988281 64.3125 -71.832031 64.3125 -70.65625 C 64.3125 -69.488281 64.226562 -68.34375 64.0625 -67.21875 C 63.019531 -67.132812 61.929688 -67.03125 60.796875 -66.90625 C 59.660156 -66.789062 58.570312 -66.734375 57.53125 -66.734375 C 52.6875 -66.734375 47.84375 -66.8125 43 -66.96875 C 38.15625 -67.132812 33.347656 -66.851562 28.578125 -66.125 C 28.492188 -65.320312 28.429688 -64.535156 28.390625 -63.765625 C 28.359375 -62.992188 28.34375 -62.207031 28.34375 -61.40625 L 28.453125 -49.296875 C 32.734375 -48.890625 36.929688 -48.785156 41.046875 -48.984375 C 45.171875 -49.191406 49.816406 -49.296875 54.984375 -49.296875 C 55.140625 -49.296875 55.296875 -49.03125 55.453125 -48.5 C 55.617188 -47.976562 55.742188 -47.394531 55.828125 -46.75 L 55.109375 -36.578125 C 55.109375 -35.765625 54.359375 -35.273438 52.859375 -35.109375 C 51.367188 -34.953125 49.9375 -34.875 48.5625 -34.875 C 45.332031 -34.875 42 -34.894531 38.5625 -34.9375 C 35.132812 -34.976562 31.804688 -34.921875 28.578125 -34.765625 L 28.34375 -28.09375 L 28.34375 -17.203125 C 29.875 -16.304688 32.113281 -15.757812 35.0625 -15.5625 C 38.007812 -15.363281 41.21875 -15.320312 44.6875 -15.4375 C 48.15625 -15.5625 51.566406 -15.703125 54.921875 -15.859375 C 58.273438 -16.023438 61.160156 -15.988281 63.578125 -15.75 C 63.828125 -14.457031 63.988281 -13.125 64.0625 -11.75 C 64.144531 -10.375 64.1875 -9 64.1875 -7.625 C 64.1875 -6.332031 64.101562 -5.039062 63.9375 -3.75 C 63.78125 -2.457031 63.625 -1.164062 63.46875 0.125 Z M 65.640625 2.546875 C 65.878906 0.847656 66.097656 -0.847656 66.296875 -2.546875 C 66.503906 -4.242188 66.609375 -5.9375 66.609375 -7.625 C 66.609375 -8.195312 66.609375 -8.765625 66.609375 -9.328125 C 66.609375 -9.890625 66.566406 -10.453125 66.484375 -11.015625 C 66.890625 -11.015625 67.234375 -10.992188 67.515625 -10.953125 C 67.796875 -10.921875 68.097656 -10.90625 68.421875 -10.90625 C 68.671875 -9.613281 68.832031 -8.28125 68.90625 -6.90625 C 68.988281 -5.53125 69.03125 -4.15625 69.03125 -2.78125 C 69.03125 -1.488281 68.945312 -0.195312 68.78125 1.09375 C 68.625 2.382812 68.46875 3.675781 68.3125 4.96875 L 49.65625 4.96875 C 44.40625 4.96875 38.832031 5.109375 32.9375 5.390625 C 27.039062 5.671875 21.59375 5.328125 16.59375 4.359375 L 16.34375 2.546875 C 18.039062 2.703125 19.675781 2.820312 21.25 2.90625 C 22.820312 2.988281 24.378906 3.03125 25.921875 3.03125 C 27.535156 3.03125 29.171875 3.007812 30.828125 2.96875 C 32.484375 2.925781 34.078125 2.863281 35.609375 2.78125 C 37.222656 2.707031 38.773438 2.648438 40.265625 2.609375 C 41.765625 2.566406 43.28125 2.546875 44.8125 2.546875 Z M 33.421875 -61.28125 C 33.347656 -60.46875 33.289062 -59.675781 33.25 -58.90625 C 33.207031 -58.144531 33.1875 -57.363281 33.1875 -56.5625 L 33.1875 -51.234375 L 30.890625 -51.46875 L 30.765625 -61.40625 L 30.765625 -63.953125 C 32.617188 -64.191406 34.429688 -64.347656 36.203125 -64.421875 C 37.984375 -64.503906 39.765625 -64.546875 41.546875 -64.546875 C 42.585938 -64.546875 43.914062 -64.523438 45.53125 -64.484375 C 47.144531 -64.453125 48.476562 -64.4375 49.53125 -64.4375 C 50.90625 -64.351562 52.257812 -64.3125 53.59375 -64.3125 C 54.925781 -64.3125 56.238281 -64.3125 57.53125 -64.3125 C 58.25 -64.3125 58.972656 -64.332031 59.703125 -64.375 C 60.429688 -64.414062 61.117188 -64.472656 61.765625 -64.546875 C 62.171875 -64.628906 62.675781 -64.691406 63.28125 -64.734375 C 63.882812 -64.773438 64.875 -64.796875 66.25 -64.796875 C 66.488281 -67.140625 66.628906 -68.972656 66.671875 -70.296875 C 66.710938 -71.628906 66.734375 -72.90625 66.734375 -74.125 C 66.734375 -74.519531 66.734375 -74.921875 66.734375 -75.328125 C 66.734375 -75.734375 66.691406 -76.175781 66.609375 -76.65625 L 68.796875 -76.65625 C 69.035156 -74.238281 69.15625 -71.78125 69.15625 -69.28125 C 69.15625 -68.144531 69.15625 -66.988281 69.15625 -65.8125 C 69.15625 -64.644531 69.070312 -63.5 68.90625 -62.375 C 67.863281 -62.289062 66.773438 -62.1875 65.640625 -62.0625 C 64.515625 -61.945312 63.425781 -61.890625 62.375 -61.890625 C 57.53125 -61.890625 52.6875 -61.96875 47.84375 -62.125 C 43 -62.289062 38.191406 -62.007812 33.421875 -61.28125 Z M 33.1875 -23.25 L 33.1875 -18.046875 C 32.695312 -18.128906 32.269531 -18.226562 31.90625 -18.34375 C 31.550781 -18.46875 31.171875 -18.570312 30.765625 -18.65625 L 30.765625 -28.09375 C 30.765625 -28.820312 30.785156 -29.550781 30.828125 -30.28125 C 30.867188 -31.007812 30.925781 -31.734375 31 -32.453125 C 32.21875 -32.535156 33.046875 -32.554688 33.484375 -32.515625 C 33.929688 -32.472656 34.800781 -32.453125 36.09375 -32.453125 L 48.5625 -32.453125 C 49.769531 -32.453125 51.0625 -32.53125 52.4375 -32.6875 C 53.8125 -32.851562 55.003906 -33.21875 56.015625 -33.78125 C 57.023438 -34.351562 57.53125 -35.242188 57.53125 -36.453125 L 58.015625 -44.453125 L 59.828125 -44.453125 C 59.984375 -44.453125 60.144531 -44.1875 60.3125 -43.65625 C 60.476562 -43.132812 60.597656 -42.550781 60.671875 -41.90625 L 59.953125 -31.734375 C 59.953125 -30.921875 59.203125 -30.429688 57.703125 -30.265625 C 56.210938 -30.109375 54.78125 -30.03125 53.40625 -30.03125 C 50.175781 -30.03125 46.84375 -30.050781 43.40625 -30.09375 C 39.976562 -30.132812 36.648438 -30.070312 33.421875 -29.90625 Z M 33.1875 -23.25 "/></g></g></g><g fill="#ffffff" fill-opacity="1"><g transform="translate(303.41195, 126.742184)"><g><path d="M 11.265625 -73.390625 L 11.5 -81.390625 C 13.195312 -81.546875 14.953125 -81.664062 16.765625 -81.75 C 18.585938 -81.832031 20.347656 -81.875 22.046875 -81.875 C 23.734375 -81.875 25.425781 -81.75 27.125 -81.5 C 27.769531 -74.238281 28.09375 -66.875 28.09375 -59.40625 C 28.09375 -51.9375 28.09375 -44.566406 28.09375 -37.296875 C 28.09375 -33.828125 28.113281 -30.351562 28.15625 -26.875 C 28.195312 -23.40625 28.257812 -19.894531 28.34375 -16.34375 C 33.832031 -16.101562 39.34375 -16.0625 44.875 -16.21875 C 50.40625 -16.382812 55.875 -16.1875 61.28125 -15.625 C 61.601562 -14.007812 61.820312 -12.109375 61.9375 -9.921875 C 62.0625 -7.742188 62.125 -5.847656 62.125 -4.234375 C 62.125 -2.941406 62.003906 -1.613281 61.765625 -0.25 C 59.335938 0 56.914062 0.125 54.5 0.125 C 47.394531 0.125 40.269531 0.144531 33.125 0.1875 C 25.976562 0.226562 18.851562 -0.078125 11.75 -0.734375 C 11.019531 -8.640625 10.65625 -16.671875 10.65625 -24.828125 C 10.65625 -32.984375 10.753906 -41.15625 10.953125 -49.34375 C 11.160156 -57.539062 11.265625 -65.554688 11.265625 -73.390625 Z M 16.59375 4.125 L 16.34375 2.0625 C 19.738281 2.300781 22.96875 2.460938 26.03125 2.546875 C 29.101562 2.628906 32.050781 2.671875 34.875 2.671875 C 36.738281 2.671875 38.535156 2.648438 40.265625 2.609375 C 42.003906 2.566406 43.757812 2.546875 45.53125 2.546875 L 54.5 2.546875 C 55.625 2.546875 56.953125 2.484375 58.484375 2.359375 C 60.023438 2.242188 61.804688 2.101562 63.828125 1.9375 C 64.304688 -0.882812 64.546875 -2.941406 64.546875 -4.234375 C 64.546875 -6.171875 64.425781 -8.394531 64.1875 -10.90625 C 64.507812 -10.90625 64.832031 -10.882812 65.15625 -10.84375 C 65.476562 -10.800781 65.800781 -10.78125 66.125 -10.78125 C 66.445312 -9.164062 66.664062 -7.265625 66.78125 -5.078125 C 66.90625 -2.898438 66.96875 -1.003906 66.96875 0.609375 C 66.96875 1.898438 66.847656 3.234375 66.609375 4.609375 C 64.191406 4.847656 61.769531 4.96875 59.34375 4.96875 C 52.238281 4.96875 45.113281 4.988281 37.96875 5.03125 C 30.820312 5.070312 23.695312 4.769531 16.59375 4.125 Z M 32.9375 -32.453125 L 32.9375 -18.65625 L 30.640625 -18.65625 C 30.554688 -22.207031 30.515625 -25.332031 30.515625 -28.03125 C 30.515625 -30.738281 30.515625 -33.828125 30.515625 -37.296875 L 30.515625 -51.71875 C 30.515625 -55.832031 30.472656 -59.988281 30.390625 -64.1875 C 30.316406 -68.382812 30.15625 -72.625 29.90625 -76.90625 L 31.96875 -76.65625 C 32.613281 -69.394531 32.9375 -62.03125 32.9375 -54.5625 C 32.9375 -47.09375 32.9375 -39.722656 32.9375 -32.453125 Z M 32.9375 -32.453125 "/></g></g></g><g fill="#ffffff" fill-opacity="1"><g transform="translate(362.511308, 126.742184)"><g><path d="M 11.265625 -73.390625 L 11.5 -81.390625 C 13.195312 -81.546875 14.953125 -81.664062 16.765625 -81.75 C 18.585938 -81.832031 20.347656 -81.875 22.046875 -81.875 C 23.734375 -81.875 25.425781 -81.75 27.125 -81.5 C 27.769531 -74.238281 28.09375 -66.875 28.09375 -59.40625 C 28.09375 -51.9375 28.09375 -44.566406 28.09375 -37.296875 C 28.09375 -33.828125 28.113281 -30.351562 28.15625 -26.875 C 28.195312 -23.40625 28.257812 -19.894531 28.34375 -16.34375 C 33.832031 -16.101562 39.34375 -16.0625 44.875 -16.21875 C 50.40625 -16.382812 55.875 -16.1875 61.28125 -15.625 C 61.601562 -14.007812 61.820312 -12.109375 61.9375 -9.921875 C 62.0625 -7.742188 62.125 -5.847656 62.125 -4.234375 C 62.125 -2.941406 62.003906 -1.613281 61.765625 -0.25 C 59.335938 0 56.914062 0.125 54.5 0.125 C 47.394531 0.125 40.269531 0.144531 33.125 0.1875 C 25.976562 0.226562 18.851562 -0.078125 11.75 -0.734375 C 11.019531 -8.640625 10.65625 -16.671875 10.65625 -24.828125 C 10.65625 -32.984375 10.753906 -41.15625 10.953125 -49.34375 C 11.160156 -57.539062 11.265625 -65.554688 11.265625 -73.390625 Z M 16.59375 4.125 L 16.34375 2.0625 C 19.738281 2.300781 22.96875 2.460938 26.03125 2.546875 C 29.101562 2.628906 32.050781 2.671875 34.875 2.671875 C 36.738281 2.671875 38.535156 2.648438 40.265625 2.609375 C 42.003906 2.566406 43.757812 2.546875 45.53125 2.546875 L 54.5 2.546875 C 55.625 2.546875 56.953125 2.484375 58.484375 2.359375 C 60.023438 2.242188 61.804688 2.101562 63.828125 1.9375 C 64.304688 -0.882812 64.546875 -2.941406 64.546875 -4.234375 C 64.546875 -6.171875 64.425781 -8.394531 64.1875 -10.90625 C 64.507812 -10.90625 64.832031 -10.882812 65.15625 -10.84375 C 65.476562 -10.800781 65.800781 -10.78125 66.125 -10.78125 C 66.445312 -9.164062 66.664062 -7.265625 66.78125 -5.078125 C 66.90625 -2.898438 66.96875 -1.003906 66.96875 0.609375 C 66.96875 1.898438 66.847656 3.234375 66.609375 4.609375 C 64.191406 4.847656 61.769531 4.96875 59.34375 4.96875 C 52.238281 4.96875 45.113281 4.988281 37.96875 5.03125 C 30.820312 5.070312 23.695312 4.769531 16.59375 4.125 Z M 32.9375 -32.453125 L 32.9375 -18.65625 L 30.640625 -18.65625 C 30.554688 -22.207031 30.515625 -25.332031 30.515625 -28.03125 C 30.515625 -30.738281 30.515625 -33.828125 30.515625 -37.296875 L 30.515625 -51.71875 C 30.515625 -55.832031 30.472656 -59.988281 30.390625 -64.1875 C 30.316406 -68.382812 30.15625 -72.625 29.90625 -76.90625 L 31.96875 -76.65625 C 32.613281 -69.394531 32.9375 -62.03125 32.9375 -54.5625 C 32.9375 -47.09375 32.9375 -39.722656 32.9375 -32.453125 Z M 32.9375 -32.453125 "/></g></g></g><g fill="#ffffff" fill-opacity="1"><g transform="translate(421.610665, 126.742184)"><g><path d="M 28.453125 -0.125 L 26.28125 0 L 13.921875 0 C 13.441406 0 12.957031 -0.0390625 12.46875 -0.125 C 11.988281 -0.207031 11.503906 -0.285156 11.015625 -0.359375 C 10.859375 -2.140625 10.738281 -3.894531 10.65625 -5.625 C 10.570312 -7.363281 10.53125 -9.125 10.53125 -10.90625 L 10.53125 -70.25 C 10.53125 -72.101562 10.59375 -73.957031 10.71875 -75.8125 C 10.84375 -77.664062 10.941406 -79.523438 11.015625 -81.390625 C 12.472656 -81.546875 13.925781 -81.664062 15.375 -81.75 C 16.832031 -81.832031 18.285156 -81.875 19.734375 -81.875 L 27.375 -81.625 C 27.613281 -81.625 27.953125 -81.539062 28.390625 -81.375 C 28.835938 -81.21875 29.0625 -81.140625 29.0625 -81.140625 C 29.0625 -67.984375 29.101562 -54.476562 29.1875 -40.625 C 29.269531 -26.78125 29.023438 -13.28125 28.453125 -0.125 Z M 30.765625 2.1875 C 31.085938 -4.28125 31.304688 -11.265625 31.421875 -18.765625 C 31.546875 -26.273438 31.609375 -33.421875 31.609375 -40.203125 C 31.609375 -43.921875 31.585938 -47.613281 31.546875 -51.28125 C 31.503906 -54.957031 31.484375 -58.65625 31.484375 -62.375 L 31.484375 -76.78125 L 32.21875 -76.78125 C 32.457031 -76.78125 32.796875 -76.695312 33.234375 -76.53125 C 33.679688 -76.375 33.90625 -76.296875 33.90625 -76.296875 C 33.90625 -63.140625 33.945312 -49.632812 34.03125 -35.78125 C 34.113281 -21.9375 33.875 -8.4375 33.3125 4.71875 L 31.125 4.84375 L 18.765625 4.84375 C 18.285156 4.84375 17.800781 4.800781 17.3125 4.71875 C 16.832031 4.644531 16.347656 4.566406 15.859375 4.484375 L 15.625 2.421875 L 26.28125 2.421875 Z M 30.765625 2.1875 "/></g></g></g><g fill="#ffffff" fill-opacity="1"><g transform="translate(455.883328, 126.742184)"><g><path d="M 29.90625 0.125 L 25.546875 -0.125 C 25.304688 -2.300781 25.1875 -4.476562 25.1875 -6.65625 C 25.1875 -16.425781 25.242188 -26.175781 25.359375 -35.90625 C 25.484375 -45.632812 25.222656 -55.34375 24.578125 -65.03125 C 21.191406 -65.195312 17.800781 -65.300781 14.40625 -65.34375 C 11.019531 -65.382812 7.628906 -65.484375 4.234375 -65.640625 C 4.078125 -67.492188 3.9375 -69.304688 3.8125 -71.078125 C 3.695312 -72.859375 3.640625 -74.640625 3.640625 -76.421875 C 3.640625 -77.304688 3.65625 -78.148438 3.6875 -78.953125 C 3.726562 -79.765625 3.832031 -80.578125 4 -81.390625 C 10.863281 -81.785156 17.722656 -81.984375 24.578125 -81.984375 C 31.441406 -81.984375 38.304688 -81.984375 45.171875 -81.984375 C 48.078125 -81.984375 50.984375 -81.921875 53.890625 -81.796875 C 56.796875 -81.679688 59.703125 -81.421875 62.609375 -81.015625 C 63.097656 -79.160156 63.363281 -77.242188 63.40625 -75.265625 C 63.445312 -73.285156 63.46875 -71.367188 63.46875 -69.515625 L 63.21875 -65.765625 L 58.015625 -65.515625 C 55.265625 -65.515625 52.535156 -65.554688 49.828125 -65.640625 C 47.128906 -65.722656 44.367188 -65.644531 41.546875 -65.40625 C 41.140625 -58.289062 41.078125 -51.082031 41.359375 -43.78125 C 41.640625 -36.476562 41.859375 -29.191406 42.015625 -21.921875 C 42.179688 -14.648438 41.820312 -7.460938 40.9375 -0.359375 C 39.15625 -0.0351562 37.335938 0.125 35.484375 0.125 C 33.628906 0.125 31.769531 0.125 29.90625 0.125 Z M 34.765625 4.96875 L 30.40625 4.71875 C 30.320312 4.320312 30.257812 3.941406 30.21875 3.578125 C 30.175781 3.210938 30.15625 2.867188 30.15625 2.546875 L 32.09375 2.546875 C 33.625 2.546875 35.195312 2.546875 36.8125 2.546875 C 38.425781 2.546875 40.523438 2.265625 43.109375 1.703125 C 43.515625 -2.179688 43.816406 -5.796875 44.015625 -9.140625 C 44.222656 -12.492188 44.328125 -15.742188 44.328125 -18.890625 C 44.328125 -21.796875 44.285156 -24.722656 44.203125 -27.671875 C 44.117188 -30.617188 44.039062 -33.585938 43.96875 -36.578125 C 43.71875 -42.066406 43.59375 -47.472656 43.59375 -52.796875 C 43.59375 -54.578125 43.613281 -56.332031 43.65625 -58.0625 C 43.695312 -59.800781 43.757812 -61.519531 43.84375 -63.21875 C 45.050781 -63.382812 45.875 -63.445312 46.3125 -63.40625 C 46.757812 -63.363281 47.59375 -63.34375 48.8125 -63.34375 C 49.53125 -63.34375 50.234375 -63.320312 50.921875 -63.28125 C 51.609375 -63.238281 52.316406 -63.21875 53.046875 -63.21875 C 53.929688 -63.21875 54.773438 -63.195312 55.578125 -63.15625 C 56.390625 -63.113281 57.203125 -63.09375 58.015625 -63.09375 L 65.640625 -63.34375 L 65.890625 -69.515625 L 65.890625 -70.609375 C 65.890625 -71.492188 65.890625 -72.421875 65.890625 -73.390625 C 65.890625 -74.359375 65.804688 -75.367188 65.640625 -76.421875 C 65.960938 -76.335938 66.265625 -76.273438 66.546875 -76.234375 C 66.828125 -76.191406 67.128906 -76.171875 67.453125 -76.171875 C 67.941406 -74.316406 68.207031 -72.398438 68.25 -70.421875 C 68.289062 -68.441406 68.3125 -66.523438 68.3125 -64.671875 L 68.0625 -60.921875 L 62.859375 -60.671875 C 60.109375 -60.671875 57.378906 -60.710938 54.671875 -60.796875 C 51.972656 -60.878906 49.210938 -60.800781 46.390625 -60.5625 C 45.984375 -53.445312 45.921875 -46.234375 46.203125 -38.921875 C 46.484375 -31.617188 46.703125 -24.332031 46.859375 -17.0625 C 47.023438 -9.800781 46.664062 -2.617188 45.78125 4.484375 C 44 4.804688 42.179688 4.96875 40.328125 4.96875 C 38.472656 4.96875 36.617188 4.96875 34.765625 4.96875 Z M 9.078125 -60.796875 C 9.003906 -61.203125 8.945312 -61.585938 8.90625 -61.953125 C 8.863281 -62.316406 8.84375 -62.660156 8.84375 -62.984375 C 9.894531 -62.898438 10.882812 -62.859375 11.8125 -62.859375 C 12.738281 -62.859375 13.601562 -62.859375 14.40625 -62.859375 C 15.78125 -62.859375 17.09375 -62.816406 18.34375 -62.734375 C 19.59375 -62.648438 20.90625 -62.609375 22.28125 -62.609375 C 22.28125 -62.285156 22.28125 -61.941406 22.28125 -61.578125 C 22.28125 -61.222656 22.320312 -60.84375 22.40625 -60.4375 C 20.144531 -60.519531 17.90625 -60.578125 15.6875 -60.609375 C 13.46875 -60.648438 11.265625 -60.710938 9.078125 -60.796875 Z M 9.078125 -60.796875 "/></g></g></g><g fill="#ffffff" fill-opacity="1"><g transform="translate(517.647013, 126.742184)"><g><path d="M 23.609375 -0.609375 C 21.992188 -0.0351562 20.21875 0.25 18.28125 0.25 C 16.988281 0.25 15.632812 0.164062 14.21875 0 C 12.8125 -0.164062 11.460938 -0.410156 10.171875 -0.734375 C 9.523438 -2.097656 9.082031 -3.523438 8.84375 -5.015625 C 8.601562 -6.515625 8.484375 -8.03125 8.484375 -9.5625 C 8.484375 -12.46875 9.003906 -14.40625 10.046875 -15.375 C 11.097656 -16.34375 13 -16.828125 15.75 -16.828125 C 17.113281 -16.828125 18.441406 -16.707031 19.734375 -16.46875 C 21.023438 -16.226562 22.316406 -15.945312 23.609375 -15.625 C 24.828125 -13.195312 25.4375 -10.570312 25.4375 -7.75 C 25.4375 -6.539062 25.289062 -5.3125 25 -4.0625 C 24.71875 -2.8125 24.253906 -1.660156 23.609375 -0.609375 Z M 25.671875 0.734375 C 26.484375 -0.566406 27.050781 -1.960938 27.375 -3.453125 C 27.695312 -4.941406 27.859375 -6.375 27.859375 -7.75 C 27.859375 -8.71875 27.734375 -9.804688 27.484375 -11.015625 C 27.648438 -10.941406 27.8125 -10.882812 27.96875 -10.84375 C 28.132812 -10.800781 28.296875 -10.78125 28.453125 -10.78125 C 29.671875 -8.351562 30.28125 -5.726562 30.28125 -2.90625 C 30.28125 -1.695312 30.132812 -0.46875 29.84375 0.78125 C 29.5625 2.039062 29.097656 3.191406 28.453125 4.234375 C 26.835938 4.804688 25.0625 5.09375 23.125 5.09375 C 21.832031 5.09375 20.476562 5.007812 19.0625 4.84375 C 17.65625 4.6875 16.304688 4.445312 15.015625 4.125 C 14.929688 3.800781 14.804688 3.492188 14.640625 3.203125 C 14.484375 2.921875 14.367188 2.660156 14.296875 2.421875 C 15.015625 2.503906 15.71875 2.566406 16.40625 2.609375 C 17.09375 2.648438 17.71875 2.671875 18.28125 2.671875 C 19.414062 2.671875 20.503906 2.585938 21.546875 2.421875 C 22.597656 2.265625 23.570312 2.023438 24.46875 1.703125 Z M 25.671875 0.734375 "/></g></g></g></svg>